<svg xmlns="http://www.w3.org/2000/svg" width="25" height="24" viewBox="0 0 25 24" fill="none">
<path d="M13.62 15.92H12.1C11.2605 15.92 10.58 16.6005 10.58 17.44V20.48C10.58 21.3195 9.89947 22 9.06 22H6.02C5.18053 22 4.5 21.3195 4.5 20.48V11.9896C4.5 11.5865 4.66014 11.1999 4.9452 10.9148L11.7852 4.0748C12.3788 3.48121 13.3412 3.48121 13.9348 4.0748L20.7748 10.9148C21.0599 11.1999 21.22 11.5865 21.22 11.9896V20.48C21.22 21.3195 20.5395 22 19.7 22H16.66C15.8205 22 15.14 21.3195 15.14 20.48V17.44C15.14 16.6005 14.4595 15.92 13.62 15.92Z" stroke="white" stroke-width="1.52"/>
</svg>